<svg xmlns="http://www.w3.org/2000/svg" version="1.1" xmlns:xlink="http://www.w3.org/1999/xlink" xmlns:svgjs="http://svgjs.dev/svgjs" width="100%" height="100%" viewBox="0 0 1000 600"><rect width="1000" height="600" x="0" y="0" fill="#4e0707"/><g><circle r="166.66666666666666" cx="384.17292277018225" cy="406.39517607674003" fill="#fffac8" transform="matrix(0.5746960864169308,0,0,0.5746960864169307,0,66.44629802876709)"/><path d="M354.2160868080023 331.39515840884343L356.1885545214128 367.3310545625437Q353.5380510315173 368.4405676513372 350.33279099722506 368.4405676513372Q347.0967111549106 368.4405676513372 345.9871980661171 368.2248289951829L345.9871980661171 368.2248289951829Q342.87439745589097 353.8011588408675 334.8920671781823 344.03127969788045L334.8920671781823 344.03127969788045L283.8544650936817 344.03127969788045L283.8544650936817 399.2911954814006L318.24937084627993 396.85643064765935Q327.80351133311274 396.1783948711744 331.56352791180177 381.1075087483962L331.56352791180177 381.1075087483962L339.11438087720194 381.1075087483962L339.11438087720194 427.70705847772274L331.56352791180177 427.70705847772274Q328.23498864542137 411.0643621458204 318.0336321901257 410.3863263693355L318.0336321901257 410.3863263693355L283.8544650936817 407.95156153559424L283.8544650936817 467.8652683304427L340.65537127830396 467.8652683304427Q348.66852136403475 457.2016147548164 351.99706063041526 441.02121554324464L351.99706063041526 441.02121554324464Q355.0790414326194 440.558918422914 356.43511298558917 440.558918422914Q357.76036473053693 440.558918422914 361.73611996538034 441.02121554324464L361.73611996538034 441.02121554324464L359.5170937877933 481.39516405211884L239.93623866227276 481.39516405211884L241.26149040722055 472.5190593417709Q257.01041230648366 470.73151047649253 262.77371640660544 466.29345812131857L262.77371640660544 466.29345812131857L262.77371640660544 346.46604453162166Q254.79138612889673 342.0279921764477 239.93623866227276 340.27126311919136L239.93623866227276 340.27126311919136L241.04575175106626 331.39515840884343L354.2160868080023 331.39515840884343ZM443.8400885360986 427.92279713387705L377.51586167266555 427.92279713387705L377.51586167266555 415.0401173806638L443.8400885360986 415.0401173806638L443.8400885360986 427.92279713387705ZM527.3001286597867 481.39516405211884L461.59229795679437 481.39516405211884L462.94836950976423 472.5190593417709Q476.6940038875947 470.9780689406689 484.46059550914913 466.29345812131857L484.46059550914913 466.29345812131857L484.46059550914913 346.46604453162166Q476.47826523144033 342.0279921764477 461.59229795679437 340.27126311919136L461.59229795679437 340.27126311919136L462.7018110455879 331.39515840884343L528.4096417485802 331.39515840884343L527.0535701956103 340.27126311919136Q513.3079358177798 341.81225352029344 505.5413441962254 346.46604453162166L505.5413441962254 346.46604453162166L505.5413441962254 466.29345812131857Q513.5236744739342 470.73151047649253 528.4096417485802 472.5190593417709L528.4096417485802 472.5190593417709L527.3001286597867 481.39516405211884Z " fill="#050505" transform="matrix(0.5746960864169308,0,0,0.5746960864169307,0,66.44629802876709)"/><path d="M718.2291540767642 331.39515990132224L719.679962640411 357.8270784202627Q717.7304386330105 358.643158237314 715.3728747170845 358.643158237314Q712.9926419173514 358.643158237314 712.1765621003001 358.48447605066514L712.1765621003001 358.48447605066514Q709.887004835795 347.87543842899777 704.0157639297868 340.6894022621847L704.0157639297868 340.6894022621847L666.4760923454254 340.6894022621847L666.4760923454254 381.3347109281025L691.7745666740168 379.54386910735093Q698.801920654181 379.0451536635974 701.5675244786328 367.9600694819834L701.5675244786328 367.9600694819834L707.1214010113432 367.9600694819834L707.1214010113432 402.23542179813944L701.5675244786328 402.23542179813944Q699.1192850274788 389.9942245423694 691.6158844873679 389.49550909861586L691.6158844873679 389.49550909861586L666.4760923454254 387.7046672778643L666.4760923454254 431.7729773986363L708.2548452016923 431.7729773986363Q714.1487549915075 423.92954360142073 716.5969944426615 412.0283796027554L716.5969944426615 412.0283796027554Q718.8638828233596 411.68834634565076 719.8613137108669 411.68834634565076Q720.8360757145671 411.68834634565076 723.7603617256676 412.0283796027554L723.7603617256676 412.0283796027554L722.128202091565 441.7246173899012L634.1729329204768 441.7246173899012L635.147694924177 435.19597885349054Q646.7314945495445 433.8811835926856 650.9705758214501 430.6168643244803L650.9705758214501 430.6168643244803L650.9705758214501 342.4802440829362Q645.0993349154418 339.2159248147309 634.1729329204768 337.9237984377329L634.1729329204768 337.9237984377329L634.9890127375281 331.39515990132224L718.2291540767642 331.39515990132224ZM784.1502681874664 402.39410398478833L735.3668302348422 402.39410398478833L735.3668302348422 392.91851055347L784.1502681874664 392.91851055347L784.1502681874664 402.39410398478833ZM845.5376055367723 441.7246173899012L797.2075452602877 441.7246173899012L798.2049761477949 435.19597885349054Q808.3152983257087 434.0625346631415 814.027857045068 430.6168643244803L814.027857045068 430.6168643244803L814.027857045068 342.4802440829362Q808.1566161390598 339.2159248147309 797.2075452602877 337.9237984377329L797.2075452602877 337.9237984377329L798.023625077339 331.39515990132224L846.3536853538236 331.39515990132224L845.3562544663164 337.9237984377329Q835.2459322884027 339.057242628082 829.5333735690433 342.4802440829362L829.5333735690433 342.4802440829362L829.5333735690433 430.6168643244803Q835.4046144750515 433.8811835926856 846.3536853538236 435.19597885349054L846.3536853538236 435.19597885349054L845.5376055367723 441.7246173899012ZM872.1282062423616 430.956897581585L872.1282062423616 380.67731329770004Q872.1282062423616 374.1486747612894 869.4306090693308 371.7911108453633Q866.7556807801069 369.4108780456302 859.8870089865916 369.0935136723325L859.8870089865916 369.0935136723325L860.3857244303451 363.87967039672674Q863.9674080718482 363.2222727663243 881.9211640469777 357.9857606069115L881.9211640469777 357.9857606069115L885.0268011285341 359.6179202410142L886.6589607626368 370.5669911197863Q895.7945209368503 357.9857606069115 909.1918312667764 357.9857606069115Q922.5664727128955 357.9857606069115 929.7525088797086 364.4463924919013Q936.9385450465217 370.884355493084 936.9385450465217 382.3094729318027L936.9385450465217 382.3094729318027L936.9385450465217 430.956897581585Q941.0189441317783 434.0625346631415 949.1797423022917 435.69469429724415L949.1797423022917 435.69469429724415L948.5223446718893 441.7246173899012L909.8265600133718 441.7246173899012L910.3252754571255 435.69469429724415Q916.8539139935361 434.69726340973693 921.9090750824929 430.956897581585L921.9090750824929 430.956897581585L921.9090750824929 383.94163256590537Q921.9090750824929 366.4865920345296 906.9022740022712 366.4865920345296L906.9022740022712 366.4865920345296Q900.849682025807 366.4865920345296 895.3184743769036 370.5669911197863Q889.7645978441932 374.64739020504294 887.1576762063903 381.17602874145365L887.1576762063903 381.17602874145365L887.1576762063903 430.956897581585Q891.5554396649447 434.2212168497903 899.3988734621604 435.69469429724415L899.3988734621604 435.69469429724415L898.7414758317578 441.7246173899012L859.8870089865916 441.7246173899012L860.544406616994 435.35466104013943Q867.5717605971582 434.2212168497903 872.1282062423616 430.956897581585L872.1282062423616 430.956897581585ZM1001.2274995231213 441.7246173899012L989.4850177111049 441.7246173899012L963.8691790092157 371.70043531013533Q961.8969861180084 366.32790984788073 951.287948496341 364.35571695667335L951.287948496341 364.35571695667335L951.7866639400946 359.14187368106764L990.9584951585585 359.14187368106764L990.459779714805 364.35571695667335Q983.115061361343 365.33047896037357 979.5333777198399 368.2774338552812L979.5333777198399 368.2774338552812L998.1445313253718 424.74562341847206L1016.7330160470966 368.2774338552812Q1012.9926502189446 365.5118300308294 1006.3053294958851 364.35571695667335L1006.3053294958851 364.35571695667335L1006.7813760558316 359.14187368106764L1040.2406485549363 359.14187368106764L1039.7646019949898 364.35571695667335Q1028.9742133028667 366.32790984788073 1027.8407691125176 369.59222911608606L1027.8407691125176 369.59222911608606L1001.2274995231213 441.7246173899012ZM1110.4235128213513 399.129784716583L1063.0908834323736 399.129784716583L1063.0908834323736 401.73670635438583Q1063.0908834323736 421.98001959402035 1068.4860777784352 428.9847046903776L1068.4860777784352 428.9847046903776Q1073.5412388673922 435.51334322678827 1085.0570318413388 435.51334322678827Q1096.5501559314785 435.51334322678827 1104.7109541019918 425.9017364926281L1104.7109541019918 425.9017364926281L1110.2648306347023 431.4329441415316Q1100.3131906434373 443.03941265070614 1083.4928788586571 443.03941265070614L1083.4928788586571 443.03941265070614Q1063.7482810627762 443.03941265070614 1055.3381251703859 432.09034177193405Q1046.927969277996 421.16393977696896 1046.927969277996 400.76194435068567Q1046.927969277996 380.35994892440226 1056.0861983360164 369.1841892075604Q1065.2217585102298 357.9857606069115 1082.518116854957 357.9857606069115Q1099.8144751996838 357.9857606069115 1106.683146993199 367.14398966493206Q1113.5291499029076 376.2795498391456 1114.0278653466612 394.39198800092385L1114.0278653466612 394.39198800092385L1110.4235128213513 399.129784716583ZM1082.200752481659 365.1717967737247L1082.200752481659 365.1717967737247Q1063.5895988761272 365.1717967737247 1063.0908834323736 392.6011461801723L1063.0908834323736 392.6011461801723L1098.1823155655811 391.28635091936735Q1098.1823155655811 377.57167621614354 1094.7593141107268 371.3830709368376Q1091.336312655873 365.1717967737247 1082.200752481659 365.1717967737247ZM1137.0367824107475 430.956897581585L1137.0367824107475 380.67731329770004Q1137.0367824107475 374.1486747612894 1134.3391852377167 371.7911108453633Q1131.641588064686 369.4108780456302 1124.7955851549773 369.0935136723325L1124.7955851549773 369.0935136723325L1125.2716317149238 363.87967039672674Q1128.8759842402342 363.2222727663243 1146.8297402153635 357.9857606069115L1146.8297402153635 357.9857606069115L1149.9353772969198 359.6179202410142L1151.5675369310225 370.5669911197863Q1160.7030971052363 357.9857606069115 1174.0777385513552 357.9857606069115Q1187.475048881281 357.9857606069115 1194.6384161642873 364.4463924919013Q1201.8244523311005 370.884355493084 1201.8244523311005 382.3094729318027L1201.8244523311005 382.3094729318027L1201.8244523311005 430.956897581585Q1205.9048514163574 434.0625346631415 1214.0656495868707 435.69469429724415L1214.0656495868707 435.69469429724415L1213.4082519564681 441.7246173899012L1174.7351361817578 441.7246173899012L1175.2338516255113 435.69469429724415Q1181.762490161922 434.69726340973693 1186.817651250879 430.956897581585L1186.817651250879 430.956897581585L1186.817651250879 383.94163256590537Q1186.817651250879 366.4865920345296 1171.78818128685 366.4865920345296L1171.78818128685 366.4865920345296Q1165.7582581941929 366.4865920345296 1160.2043816614828 370.5669911197863Q1154.6505051287722 374.64739020504294 1152.0435834909695 381.17602874145365L1152.0435834909695 381.17602874145365L1152.0435834909695 430.956897581585Q1156.4640158333304 434.2212168497903 1164.2847807467392 435.69469429724415L1164.2847807467392 435.69469429724415L1163.6273831163367 441.7246173899012L1124.7955851549773 441.7246173899012L1125.4529827853798 435.35466104013943Q1132.457667881737 434.2212168497903 1137.0367824107475 430.956897581585L1137.0367824107475 430.956897581585ZM1233.9915984532072 421.32262196361785L1233.9915984532072 421.32262196361785L1233.9915984532072 368.2774338552812L1219.6195261195812 368.2774338552812L1219.6195261195812 363.3809549529731Q1236.915884464308 357.509714046965 1242.1523966237205 342.00419752298956L1242.1523966237205 342.00419752298956L1249.1570817200777 342.00419752298956L1249.1570817200777 359.14187368106764L1269.0830305864147 359.14187368106764L1269.0830305864147 368.2774338552812L1248.9983995334292 368.2774338552812L1248.9983995334292 422.6374172244228Q1248.9983995334292 429.16605576083344 1250.4718769808828 431.9316595852852Q1251.9453544283365 434.69726340973693 1257.1591977039425 434.69726340973693Q1262.373040979548 434.69726340973693 1268.0855996989076 431.2742619548827L1268.0855996989076 431.2742619548827L1271.531270037569 436.5107741142955Q1263.3704718670556 443.03941265070614 1252.580083174932 443.03941265070614Q1241.812363366616 443.03941265070614 1237.890646468008 438.0522582131702Q1233.9915984532072 433.06510377563427 1233.9915984532072 421.32262196361785ZM1296.988426552809 400.4219110935809Q1296.988426552809 418.71570032581496 1301.884905455117 426.7858229611004Q1306.781384357425 434.8786144801928 1317.798461887618 434.8786144801928Q1328.8155394178107 434.8786144801928 1333.7120183201191 426.7858229611004Q1338.608497222427 418.71570032581496 1338.608497222427 400.51258662880883Q1338.608497222427 382.3094729318027 1333.7120183201191 374.2393502965173Q1328.8155394178107 366.1465587774249 1317.70778635239 366.1465587774249Q1306.622702170776 366.1465587774249 1301.794229919889 374.1486747612894Q1296.988426552809 382.1507907451538 1296.988426552809 400.4219110935809ZM1344.8877780369608 432.181017307162Q1335.6615423275193 443.03941265070614 1317.70778635239 443.03941265070614Q1299.7540303772607 443.03941265070614 1290.5277946678193 432.181017307162Q1281.3242278421844 421.32262196361785 1281.3242278421844 400.51258662880883Q1281.3242278421844 379.7025512939998 1290.5277946678193 368.8441559504557Q1299.7540303772607 357.9857606069115 1317.70778635239 357.9857606069115Q1335.6615423275193 357.9857606069115 1344.8877780369608 368.8441559504557Q1354.1140137464022 379.7025512939998 1354.1140137464022 400.51258662880883Q1354.1140137464022 421.32262196361785 1344.8877780369608 432.181017307162ZM1379.0724548178887 430.956897581585L1379.0724548178887 380.67731329770004Q1379.0724548178887 374.1486747612894 1376.397526528665 371.7911108453633Q1373.6999293556341 369.4108780456302 1366.831257562119 369.0935136723325L1366.831257562119 369.0935136723325L1367.3299730058725 363.87967039672674Q1370.9116566473758 363.2222727663243 1388.8654126225047 357.9857606069115L1388.8654126225047 357.9857606069115L1391.9710497040614 359.6179202410142L1393.761891524813 371.8591174967842Q1403.0788027694825 357.9857606069115 1414.8212845814987 357.9857606069115L1414.8212845814987 357.9857606069115Q1421.1912409312604 357.9857606069115 1425.8383621116918 361.74879531887046Q1430.4854832921228 365.5118300308294 1430.4854832921228 371.13371321496084Q1430.4854832921228 376.7555963990922 1427.969237189548 380.0199156672976Q1425.4303222031658 383.2842349355029 1421.757963026435 383.2842349355029Q1418.085603849704 383.2842349355029 1415.4786822119013 381.8334263718561Q1412.8717605740985 380.35994892440226 1412.214362943696 377.91170947324827L1412.214362943696 377.91170947324827Q1414.0052047644476 376.12086765249677 1414.0052047644476 373.0152305709403L1414.0052047644476 373.0152305709403Q1414.0052047644476 367.6200362248787 1408.9500436754906 367.6200362248787Q1403.8948825865336 367.6200362248787 1398.9984036842257 375.12343676498955Q1394.1019247819177 382.6495061889074 1394.1019247819177 390.96898654606963L1394.1019247819177 390.96898654606963L1394.1019247819177 430.956897581585Q1398.9984036842257 434.2212168497903 1407.97528167179 435.69469429724415L1407.97528167179 435.69469429724415L1407.317884041388 441.7246173899012L1366.831257562119 441.7246173899012L1367.4886551925215 435.35466104013943Q1374.5160091726857 434.2212168497903 1379.0724548178887 430.956897581585L1379.0724548178887 430.956897581585ZM1478.8155435686076 457.887531544279Q1474.3951112262462 470.60477535999564 1468.8412346935356 475.99996970605724Q1463.310027044632 481.39516405211884 1455.7159509692933 481.39516405211884Q1448.1218748939546 481.39516405211884 1443.4747537135236 477.54145380493196Q1438.8276325330921 473.7104124415521 1438.8276325330921 468.4058936307184Q1438.8276325330921 463.10137481988477 1441.275871984246 460.4944531820819Q1443.7241114354001 457.887531544279 1447.215119541675 457.887531544279Q1450.7287965317573 457.887531544279 1453.675751426665 459.83705555167944L1453.675751426665 459.83705555167944Q1451.5448763488089 462.784010446587 1451.5448763488089 465.6402898062667Q1451.5448763488089 468.49656916594637 1453.1770359829115 470.19673545147Q1454.8091956170142 471.9195706208006 1458.0735148852195 471.9195706208006L1458.0735148852195 471.9195706208006Q1464.4434712349812 471.9195706208006 1469.6573145105872 455.7566564664228L1469.6573145105872 455.7566564664228L1473.9190646662996 442.54069720695253L1445.0162378123982 372.0404685672401Q1442.726680547893 366.32790984788073 1432.4576761833305 364.51439914332224L1432.4576761833305 364.51439914332224L1432.933722743277 359.14187368106764L1471.2894741446894 359.14187368106764L1470.8134275847428 364.35571695667335Q1463.9447557912276 365.1717967737247 1460.3630721497248 368.2774338552812L1460.3630721497248 368.2774338552812L1480.7650675760078 421.82133740737146L1498.2201081073836 368.2774338552812Q1494.4797422792317 365.5118300308294 1487.792421556172 364.35571695667335L1487.792421556172 364.35571695667335L1488.2684681161186 359.14187368106764L1522.543820432275 359.14187368106764L1522.0677738723284 364.35571695667335Q1510.6426564336098 365.987876590776 1509.3278611728047 369.59222911608606L1509.3278611728047 369.59222911608606L1478.8155435686076 457.887531544279Z " fill="#bce2f1" transform="matrix(0.5746960864169308,0,0,0.5746960864169307,0,66.44629802876709)"/></g></svg>